# xmcd
#
# Track frame offsets: 
#        150
#        21281
#        46455
#        66597
#        96339
#        122611
#        146135
#        162494
#        181970
#        213216
#
# Disc length: 3149 seconds
#
# Revision: 0
# Processed by: cddbd v1.5.2PL0 Copyright (c) Steve Scherf et al.
# Submitted via: ExactAudioCopy v1.0b3
#
DISCID=960c4b0a
DTITLE=Thai Chau - Thuong Nho Mot Minh
DYEAR=1992
DGENRE=
TTITLE0=Tango tim
TTITLE1=Rong reu
TTITLE2=Dem nay ai dua em ve
TTITLE3=Mua chieu ky niem
TTITLE4=Toi ban duong to
TTITLE5=Dong nuoc mat
TTITLE6=Sao khong den
TTITLE7=Tinh nghia doi ta
TTITLE8=Lanh tron dem mua
TTITLE9=Mat nhau mua dong
EXTD=
EXTT0=
EXTT1=
EXTT2=
EXTT3=
EXTT4=
EXTT5=
EXTT6=
EXTT7=
EXTT8=
EXTT9=
PLAYORDER=
